<mxfile host="app.diagrams.net" agent="Mozilla/5.0 (Windows NT 10.0; Win64; x64) AppleWebKit/537.36 (KHTML, like Gecko) Chrome/131.0.0.0 Safari/537.36" version="24.9.3">
  <diagram id="prtHgNgQTEPvFCAcTncT" name="Page-1">
    <mxGraphModel dx="1674" dy="780" grid="1" gridSize="10" guides="1" tooltips="1" connect="1" arrows="1" fold="1" page="1" pageScale="1" pageWidth="827" pageHeight="1169" math="0" shadow="0">
      <root>
        <mxCell id="0" />
        <mxCell id="1" parent="0" />
        <mxCell id="dNxyNK7c78bLwvsdeMH5-19" value="Pool" style="swimlane;html=1;childLayout=stackLayout;resizeParent=1;resizeParentMax=0;horizontal=0;startSize=20;horizontalStack=0;" parent="1" vertex="1">
          <mxGeometry x="10" y="90" width="790" height="360" as="geometry" />
        </mxCell>
        <mxCell id="dNxyNK7c78bLwvsdeMH5-20" value="Technician" style="swimlane;html=1;startSize=20;horizontal=0;" parent="dNxyNK7c78bLwvsdeMH5-19" vertex="1">
          <mxGeometry x="20" width="770" height="120" as="geometry" />
        </mxCell>
        <mxCell id="037MWWTFvinKBPvWNamu-39" value="Assign Ticket" style="shape=ext;double=1;rounded=1;whiteSpace=wrap;html=1;" vertex="1" parent="dNxyNK7c78bLwvsdeMH5-20">
          <mxGeometry x="250" y="40" width="90" height="40" as="geometry" />
        </mxCell>
        <mxCell id="dNxyNK7c78bLwvsdeMH5-21" value="Ticket System" style="swimlane;html=1;startSize=20;horizontal=0;" parent="dNxyNK7c78bLwvsdeMH5-19" vertex="1">
          <mxGeometry x="20" y="120" width="770" height="240" as="geometry" />
        </mxCell>
        <mxCell id="dNxyNK7c78bLwvsdeMH5-22" value="User" style="swimlane;html=1;startSize=20;horizontal=0;" parent="dNxyNK7c78bLwvsdeMH5-21" vertex="1">
          <mxGeometry x="-1" y="120" width="770" height="120" as="geometry" />
        </mxCell>
        <mxCell id="037MWWTFvinKBPvWNamu-34" value="Book Ticket" style="shape=ext;double=1;rounded=1;whiteSpace=wrap;html=1;" vertex="1" parent="dNxyNK7c78bLwvsdeMH5-22">
          <mxGeometry x="156" y="40" width="90" height="40" as="geometry" />
        </mxCell>
        <mxCell id="037MWWTFvinKBPvWNamu-41" value="View Tickets" style="shape=ext;double=1;rounded=1;whiteSpace=wrap;html=1;" vertex="1" parent="dNxyNK7c78bLwvsdeMH5-22">
          <mxGeometry x="371" y="40" width="90" height="40" as="geometry" />
        </mxCell>
        <mxCell id="037MWWTFvinKBPvWNamu-33" style="edgeStyle=orthogonalEdgeStyle;rounded=0;orthogonalLoop=1;jettySize=auto;html=1;" edge="1" parent="dNxyNK7c78bLwvsdeMH5-21" source="037MWWTFvinKBPvWNamu-14" target="037MWWTFvinKBPvWNamu-32">
          <mxGeometry relative="1" as="geometry" />
        </mxCell>
        <mxCell id="037MWWTFvinKBPvWNamu-14" value="Log in" style="rounded=1;whiteSpace=wrap;html=1;" vertex="1" parent="dNxyNK7c78bLwvsdeMH5-21">
          <mxGeometry x="60" y="46.25" width="80" height="27.5" as="geometry" />
        </mxCell>
        <mxCell id="037MWWTFvinKBPvWNamu-12" style="edgeStyle=orthogonalEdgeStyle;rounded=0;orthogonalLoop=1;jettySize=auto;html=1;entryX=0;entryY=0.5;entryDx=0;entryDy=0;" edge="1" parent="dNxyNK7c78bLwvsdeMH5-21" source="037MWWTFvinKBPvWNamu-11" target="037MWWTFvinKBPvWNamu-14">
          <mxGeometry relative="1" as="geometry">
            <mxPoint x="30" y="60" as="sourcePoint" />
            <mxPoint x="60" y="180" as="targetPoint" />
          </mxGeometry>
        </mxCell>
        <mxCell id="037MWWTFvinKBPvWNamu-11" value="" style="shape=waypoint;sketch=0;fillStyle=solid;size=6;pointerEvents=1;points=[];fillColor=none;resizable=0;rotatable=0;perimeter=centerPerimeter;snapToPoint=1;" vertex="1" parent="dNxyNK7c78bLwvsdeMH5-21">
          <mxGeometry x="20" y="50" width="20" height="20" as="geometry" />
        </mxCell>
        <mxCell id="037MWWTFvinKBPvWNamu-35" style="edgeStyle=orthogonalEdgeStyle;rounded=0;orthogonalLoop=1;jettySize=auto;html=1;" edge="1" parent="dNxyNK7c78bLwvsdeMH5-21" source="037MWWTFvinKBPvWNamu-32" target="037MWWTFvinKBPvWNamu-34">
          <mxGeometry relative="1" as="geometry" />
        </mxCell>
        <mxCell id="037MWWTFvinKBPvWNamu-32" value="" style="html=1;whiteSpace=wrap;aspect=fixed;shape=isoRectangle;rotation=-90;" vertex="1" parent="dNxyNK7c78bLwvsdeMH5-21">
          <mxGeometry x="170" y="42" width="60" height="36" as="geometry" />
        </mxCell>
        <mxCell id="037MWWTFvinKBPvWNamu-38" value="Added to Processing tickets" style="shape=ext;double=1;rounded=1;whiteSpace=wrap;html=1;" vertex="1" parent="dNxyNK7c78bLwvsdeMH5-21">
          <mxGeometry x="240" y="30" width="100" height="56.25" as="geometry" />
        </mxCell>
        <mxCell id="037MWWTFvinKBPvWNamu-47" style="edgeStyle=orthogonalEdgeStyle;rounded=0;orthogonalLoop=1;jettySize=auto;html=1;entryX=0.5;entryY=0;entryDx=0;entryDy=0;" edge="1" parent="dNxyNK7c78bLwvsdeMH5-21" source="037MWWTFvinKBPvWNamu-40" target="037MWWTFvinKBPvWNamu-41">
          <mxGeometry relative="1" as="geometry" />
        </mxCell>
        <mxCell id="037MWWTFvinKBPvWNamu-40" value="Added to User Tickets and AssignedTickets" style="shape=ext;double=1;rounded=1;whiteSpace=wrap;html=1;" vertex="1" parent="dNxyNK7c78bLwvsdeMH5-21">
          <mxGeometry x="360" y="20" width="100" height="66.25" as="geometry" />
        </mxCell>
        <mxCell id="037MWWTFvinKBPvWNamu-50" style="edgeStyle=orthogonalEdgeStyle;rounded=0;orthogonalLoop=1;jettySize=auto;html=1;" edge="1" parent="dNxyNK7c78bLwvsdeMH5-21" source="037MWWTFvinKBPvWNamu-43" target="037MWWTFvinKBPvWNamu-51">
          <mxGeometry relative="1" as="geometry">
            <mxPoint x="730" y="66.25" as="targetPoint" />
          </mxGeometry>
        </mxCell>
        <mxCell id="037MWWTFvinKBPvWNamu-43" value="Displays Tickets to User" style="shape=ext;double=1;rounded=1;whiteSpace=wrap;html=1;" vertex="1" parent="dNxyNK7c78bLwvsdeMH5-21">
          <mxGeometry x="490" y="46.25" width="90" height="40" as="geometry" />
        </mxCell>
        <mxCell id="037MWWTFvinKBPvWNamu-44" style="edgeStyle=orthogonalEdgeStyle;rounded=0;orthogonalLoop=1;jettySize=auto;html=1;entryX=0.5;entryY=1;entryDx=0;entryDy=0;exitX=1;exitY=0.25;exitDx=0;exitDy=0;" edge="1" parent="dNxyNK7c78bLwvsdeMH5-21" source="037MWWTFvinKBPvWNamu-34" target="037MWWTFvinKBPvWNamu-38">
          <mxGeometry relative="1" as="geometry">
            <mxPoint x="245" y="183.75" as="sourcePoint" />
            <mxPoint x="335" y="110" as="targetPoint" />
          </mxGeometry>
        </mxCell>
        <mxCell id="037MWWTFvinKBPvWNamu-48" style="edgeStyle=orthogonalEdgeStyle;rounded=0;orthogonalLoop=1;jettySize=auto;html=1;entryX=0.5;entryY=1;entryDx=0;entryDy=0;" edge="1" parent="dNxyNK7c78bLwvsdeMH5-21" source="037MWWTFvinKBPvWNamu-41" target="037MWWTFvinKBPvWNamu-43">
          <mxGeometry relative="1" as="geometry" />
        </mxCell>
        <mxCell id="037MWWTFvinKBPvWNamu-51" value="" style="shape=waypoint;sketch=0;fillStyle=solid;size=6;pointerEvents=1;points=[];fillColor=none;resizable=0;rotatable=0;perimeter=centerPerimeter;snapToPoint=1;" vertex="1" parent="dNxyNK7c78bLwvsdeMH5-21">
          <mxGeometry x="720" y="56.25" width="20" height="20" as="geometry" />
        </mxCell>
        <mxCell id="037MWWTFvinKBPvWNamu-52" value="if Technician log in" style="text;html=1;align=center;verticalAlign=middle;whiteSpace=wrap;rounded=0;" vertex="1" parent="dNxyNK7c78bLwvsdeMH5-21">
          <mxGeometry x="90" y="-10" width="110" height="60" as="geometry" />
        </mxCell>
        <mxCell id="037MWWTFvinKBPvWNamu-72" value="if User log in" style="text;html=1;align=center;verticalAlign=middle;whiteSpace=wrap;rounded=0;" vertex="1" parent="dNxyNK7c78bLwvsdeMH5-21">
          <mxGeometry x="90" y="70" width="110" height="60" as="geometry" />
        </mxCell>
        <mxCell id="037MWWTFvinKBPvWNamu-45" style="edgeStyle=orthogonalEdgeStyle;rounded=0;orthogonalLoop=1;jettySize=auto;html=1;entryX=0.5;entryY=1;entryDx=0;entryDy=0;" edge="1" parent="dNxyNK7c78bLwvsdeMH5-19" source="037MWWTFvinKBPvWNamu-38" target="037MWWTFvinKBPvWNamu-39">
          <mxGeometry relative="1" as="geometry" />
        </mxCell>
        <mxCell id="037MWWTFvinKBPvWNamu-46" style="edgeStyle=orthogonalEdgeStyle;rounded=0;orthogonalLoop=1;jettySize=auto;html=1;entryX=0.5;entryY=0;entryDx=0;entryDy=0;" edge="1" parent="dNxyNK7c78bLwvsdeMH5-19" source="037MWWTFvinKBPvWNamu-39" target="037MWWTFvinKBPvWNamu-40">
          <mxGeometry relative="1" as="geometry" />
        </mxCell>
        <mxCell id="037MWWTFvinKBPvWNamu-49" style="edgeStyle=orthogonalEdgeStyle;rounded=0;orthogonalLoop=1;jettySize=auto;html=1;entryX=0;entryY=0.5;entryDx=0;entryDy=0;exitX=1;exitY=0.5;exitDx=0;exitDy=0;exitPerimeter=0;" edge="1" parent="dNxyNK7c78bLwvsdeMH5-19" source="037MWWTFvinKBPvWNamu-32" target="037MWWTFvinKBPvWNamu-39">
          <mxGeometry relative="1" as="geometry">
            <mxPoint x="220" y="50" as="targetPoint" />
          </mxGeometry>
        </mxCell>
      </root>
    </mxGraphModel>
  </diagram>
</mxfile>
